<svg width="24" height="24" viewBox="0 0 24 24" fill="none" xmlns="http://www.w3.org/2000/svg">
<path d="M23.1094 16.4531C23.3594 16.5781 23.5625 16.7656 23.7188 17.0156C23.9062 17.2656 24 17.5312 24 17.8125C24 17.9375 23.9844 18.0469 23.9531 18.1406L22.875 22.875C22.8125 23.1875 22.6406 23.4531 22.3594 23.6719C22.0781 23.8906 21.7812 24 21.4688 24H21.4219C18.5469 24 15.7812 23.4375 13.125 22.3125C10.4688 21.1875 8.1875 19.6719 6.28125 17.7656C4.375 15.8281 2.84375 13.5469 1.6875 10.9219C0.5625 8.26562 0 5.48438 0 2.57812V2.53125C0 2.21875 0.109375 1.92188 0.328125 1.64062C0.546875 1.35938 0.8125 1.1875 1.125 1.125L5.85938 0.046875C5.95312 0.015625 6.0625 0 6.1875 0C6.375 0 6.54688 0.046875 6.70312 0.140625C6.89062 0.203125 7.0625 0.3125 7.21875 0.46875C7.375 0.59375 7.48438 0.734375 7.54688 0.890625L9.70312 5.95312C9.79688 6.14062 9.84375 6.34375 9.84375 6.5625C9.84375 7 9.65625 7.375 9.28125 7.6875L6.75 9.75C7.4375 11.125 8.51562 12.5469 9.98438 14.0156C11.4531 15.4844 12.875 16.5625 14.25 17.25L16.3125 14.7188C16.625 14.3438 17 14.1562 17.4375 14.1562C17.6562 14.1562 17.8594 14.2031 18.0469 14.2969L23.1094 16.4531ZM21.4219 22.5L22.5 17.8125L17.4375 15.6562L14.6719 19.0781C12.2344 17.9531 10.2812 16.6562 8.8125 15.1875C7.34375 13.7188 6.04688 11.7656 4.92188 9.32812L8.34375 6.5625L6.1875 1.5L1.5 2.57812C1.5 4.73438 1.82812 6.82812 2.48438 8.85938C3.17188 10.8906 4.125 12.7188 5.34375 14.3438C6.59375 15.9688 8.03125 17.4062 9.65625 18.6562C11.2812 19.875 13.1094 20.8125 15.1406 21.4688C17.1719 22.1562 19.2656 22.5 21.4219 22.5Z" fill="#F88E17"/>
</svg>
