<svg width="24" height="24" viewBox="0 0 24 24" fill="none" xmlns="http://www.w3.org/2000/svg">
<path d="M23.1094 15.9391C23.3594 16.0587 23.5625 16.2381 23.7188 16.4774C23.9062 16.7166 24 16.9708 24 17.24C24 17.3596 23.9844 17.4643 23.9531 17.554L22.875 22.0847C22.8125 22.3838 22.6406 22.638 22.3594 22.8473C22.0781 23.0567 21.7812 23.1613 21.4688 23.1613H21.4219C18.5469 23.1613 15.7812 22.623 13.125 21.5464C10.4688 20.4698 8.1875 19.0194 6.28125 17.1951C4.375 15.341 2.84375 13.1578 1.6875 10.6457C0.5625 8.10372 0 5.44209 0 2.66084V2.61598C0 2.31692 0.109375 2.03282 0.328125 1.76366C0.546875 1.49451 0.8125 1.33003 1.125 1.27022L5.85938 0.238462C5.95312 0.208556 6.0625 0.193604 6.1875 0.193604C6.375 0.193604 6.54688 0.238462 6.70312 0.32818C6.89062 0.387992 7.0625 0.492663 7.21875 0.642192C7.375 0.761816 7.48438 0.896393 7.54688 1.04592L9.70312 5.89068C9.79688 6.07012 9.84375 6.2645 9.84375 6.47385C9.84375 6.89253 9.65625 7.2514 9.28125 7.55046L6.75 9.52425C7.4375 10.8401 8.51562 12.2008 9.98438 13.6064C11.4531 15.012 12.875 16.0437 14.25 16.7017L16.3125 14.2793C16.625 13.9204 17 13.741 17.4375 13.741C17.6562 13.741 17.8594 13.7858 18.0469 13.8756L23.1094 15.9391ZM21.4219 21.7259L22.5 17.24L17.4375 15.1765L14.6719 18.4512C12.2344 17.3746 10.2812 16.1335 8.8125 14.7279C7.34375 13.3223 6.04688 11.4532 4.92188 9.12052L8.34375 6.47385L6.1875 1.62909L1.5 2.66084C1.5 4.72435 1.82812 6.72805 2.48438 8.67193C3.17188 10.6158 4.125 12.3653 5.34375 13.9204C6.59375 15.4755 8.03125 16.8512 9.65625 18.0474C11.2812 19.2138 13.1094 20.1109 15.1406 20.739C17.1719 21.3969 19.2656 21.7259 21.4219 21.7259Z" fill="#E8A45F"/>
</svg>
